STARTFONT 2.1
FONT -Adobe-ITC Lubalin Graph-Book-O-Normal--14-140-75-75-P-82-ISO8859-1
SIZE 14 75 75
FONTBOUNDINGBOX 20 18 -2 -3

STARTPROPERTIES 30
FOUNDRY "Adobe"
FAMILY_NAME "ITC Lubalin Graph"
WEIGHT_NAME "Book"
SLANT "O"
SETWIDTH_NAME "Normal"
ADD_STYLE_NAME ""
PIXEL_SIZE 14
POINT_SIZE 140
RESOLUTION_X 75
RESOLUTION_Y 75
SPACING "P"
AVERAGE_WIDTH 82
CHARSET_REGISTRY "ISO8859"
CHARSET_ENCODING "1"
CAP_HEIGHT 11
X_HEIGHT 8
FACE_NAME "ITC Lubalin Graph Book Oblique"
COPYRIGHT "Copyright (c) 1984, 1987 Adobe Systems Incorporated. All Rights Reserved. Copyright (c) 1988, 1991 Digital Equipment Corporation. All Rights Reserved."
NOTICE "ITC Lubalin Graph is a registered trademark of International Typeface Corporation."
_DEC_DEVICE_FONTNAMES "PS=LubalinGraph-BookOblique"
_DEC_PRODUCTINFO "DECwindows Fonts V2.2, 07-Nov-1991"
RELATIVE_SETWIDTH 50
RELATIVE_WEIGHT 40
CHARSET_COLLECTIONS "ASCII ISO8859-1 ADOBE-STANDARD"
FULL_NAME "ITC Lubalin Graph Book Oblique"
WEIGHT 10
QUAD_WIDTH 9
DEFAULT_CHAR 32
FONT_DESCENT 3
FONT_ASCENT 13
ENDPROPERTIES

CHARS 191

STARTCHAR space
ENCODING 32
SWIDTH 300 0
DWIDTH 3 0
BBX 1 1 0 0
BITMAP
00
ENDCHAR

STARTCHAR exclam
ENCODING 33
SWIDTH 140 0
DWIDTH 4 0
BBX 3 11 1 0
BITMAP
20
20
20
40
40
40
80
80
00
80
80
ENDCHAR

STARTCHAR quotedbl
ENCODING 34
SWIDTH 280 0
DWIDTH 5 0
BBX 3 3 2 8
BITMAP
A0
A0
A0
ENDCHAR

STARTCHAR numbersign
ENCODING 35
SWIDTH 580 0
DWIDTH 8 0
BBX 7 10 1 1
BITMAP
14
14
14
7E
28
28
FC
50
50
50
ENDCHAR

STARTCHAR dollar
ENCODING 36
SWIDTH 580 0
DWIDTH 8 0
BBX 8 14 0 -2
BITMAP
04
1D
6B
49
48
28
1C
12
12
92
D4
B8
20
20
ENDCHAR

STARTCHAR percent
ENCODING 37
SWIDTH 800 0
DWIDTH 12 0
BBX 10 11 1 0
BITMAP
3880
4500
8500
8A00
7400
0800
0B80
1440
2840
2880
4700
ENDCHAR

STARTCHAR ampersand
ENCODING 38
SWIDTH 720 0
DWIDTH 11 0
BBX 10 11 1 0
BITMAP
1C00
2200
2200
2400
1800
28C0
4500
8200
8300
8480
7840
ENDCHAR

STARTCHAR quoteright
ENCODING 39
SWIDTH 200 0
DWIDTH 3 0
BBX 2 2 2 9
BITMAP
40
80
ENDCHAR

STARTCHAR parenleft
ENCODING 40
SWIDTH 340 0
DWIDTH 5 0
BBX 6 13 0 -2
BITMAP
0C
10
20
40
40
80
80
80
80
40
40
20
10
ENDCHAR

STARTCHAR parenright
ENCODING 41
SWIDTH 340 0
DWIDTH 6 0
BBX 6 13 0 -2
BITMAP
20
10
08
08
04
04
04
04
08
08
10
20
C0
ENDCHAR

STARTCHAR asterisk
ENCODING 42
SWIDTH 340 0
DWIDTH 6 0
BBX 5 5 2 6
BITMAP
50
20
F8
40
A0
ENDCHAR

STARTCHAR plus
ENCODING 43
SWIDTH 660 0
DWIDTH 9 0
BBX 6 7 1 2
BITMAP
10
10
10
FC
20
20
20
ENDCHAR

STARTCHAR comma
ENCODING 44
SWIDTH 300 0
DWIDTH 4 0
BBX 2 3 0 -1
BITMAP
40
40
80
ENDCHAR

STARTCHAR minus
ENCODING 45
SWIDTH 660 0
DWIDTH 9 0
BBX 6 1 1 5
BITMAP
FC
ENDCHAR

STARTCHAR period
ENCODING 46
SWIDTH 300 0
DWIDTH 4 0
BBX 1 2 1 0
BITMAP
80
80
ENDCHAR

STARTCHAR slash
ENCODING 47
SWIDTH 580 0
DWIDTH 6 0
BBX 7 13 0 -2
BITMAP
02
04
04
08
08
10
10
20
20
40
40
80
80
ENDCHAR

STARTCHAR zero
ENCODING 48
SWIDTH 580 0
DWIDTH 8 0
BBX 8 11 0 0
BITMAP
1C
22
41
41
41
81
82
82
82
44
38
ENDCHAR

STARTCHAR one
ENCODING 49
SWIDTH 580 0
DWIDTH 8 0
BBX 4 11 2 0
BITMAP
70
10
10
20
20
20
20
40
40
40
E0
ENDCHAR

STARTCHAR two
ENCODING 50
SWIDTH 580 0
DWIDTH 8 0
BBX 8 11 0 0
BITMAP
1E
21
41
41
02
04
08
10
20
42
FE
ENDCHAR

STARTCHAR three
ENCODING 51
SWIDTH 580 0
DWIDTH 8 0
BBX 7 11 0 0
BITMAP
1C
22
02
04
18
04
02
82
82
44
38
ENDCHAR

STARTCHAR four
ENCODING 52
SWIDTH 580 0
DWIDTH 8 0
BBX 8 11 0 0
BITMAP
03
05
09
12
22
22
44
84
FE
04
0E
ENDCHAR

STARTCHAR five
ENCODING 53
SWIDTH 580 0
DWIDTH 8 0
BBX 8 11 0 0
BITMAP
1F
10
20
20
7C
42
02
82
82
44
38
ENDCHAR

STARTCHAR six
ENCODING 54
SWIDTH 580 0
DWIDTH 8 0
BBX 7 11 0 0
BITMAP
04
08
10
20
58
64
82
82
82
44
38
ENDCHAR

STARTCHAR seven
ENCODING 55
SWIDTH 580 0
DWIDTH 8 0
BBX 6 11 2 0
BITMAP
FC
84
08
10
10
20
20
40
40
80
80
ENDCHAR

STARTCHAR eight
ENCODING 56
SWIDTH 580 0
DWIDTH 8 0
BBX 8 11 0 0
BITMAP
1E
21
21
12
3C
42
82
82
82
44
38
ENDCHAR

STARTCHAR nine
ENCODING 57
SWIDTH 580 0
DWIDTH 8 0
BBX 7 11 1 0
BITMAP
3C
42
82
82
82
44
3C
08
10
20
40
ENDCHAR

STARTCHAR colon
ENCODING 58
SWIDTH 300 0
DWIDTH 4 0
BBX 2 7 1 0
BITMAP
40
40
00
00
00
80
80
ENDCHAR

STARTCHAR semicolon
ENCODING 59
SWIDTH 300 0
DWIDTH 4 0
BBX 3 8 0 -1
BITMAP
20
20
00
00
00
40
40
80
ENDCHAR

STARTCHAR less
ENCODING 60
SWIDTH 660 0
DWIDTH 10 0
BBX 8 7 1 1
BITMAP
03
0C
30
C0
30
0C
03
ENDCHAR

STARTCHAR equal
ENCODING 61
SWIDTH 660 0
DWIDTH 9 0
BBX 7 3 1 4
BITMAP
7E
00
FC
ENDCHAR

STARTCHAR greater
ENCODING 62
SWIDTH 660 0
DWIDTH 10 0
BBX 8 7 1 1
BITMAP
C0
30
0C
03
0C
30
C0
ENDCHAR

STARTCHAR question
ENCODING 63
SWIDTH 520 0
DWIDTH 7 0
BBX 6 11 2 0
BITMAP
78
84
84
04
08
30
40
40
00
40
40
ENDCHAR

STARTCHAR at
ENCODING 64
SWIDTH 900 0
DWIDTH 13 0
BBX 12 11 1 0
BITMAP
0F80
3060
6020
4690
8910
9110
9220
9240
8D80
4040
3F80
ENDCHAR

STARTCHAR A
ENCODING 65
SWIDTH 820 0
DWIDTH 12 0
BBX 11 11 0 0
BITMAP
0700
0100
0280
0480
0480
0880
1F80
1040
2040
4040
E0E0
ENDCHAR

STARTCHAR B
ENCODING 66
SWIDTH 580 0
DWIDTH 8 0
BBX 8 11 0 0
BITMAP
3E
11
11
21
22
3E
21
41
41
42
FC
ENDCHAR

STARTCHAR C
ENCODING 67
SWIDTH 740 0
DWIDTH 11 0
BBX 10 11 1 0
BITMAP
0F40
30C0
4040
4000
8000
8000
8000
8000
4080
6100
1E00
ENDCHAR

STARTCHAR D
ENCODING 68
SWIDTH 720 0
DWIDTH 11 0
BBX 11 11 0 0
BITMAP
3F80
1040
1020
2020
2020
2020
2020
4040
4040
4180
FE00
ENDCHAR

STARTCHAR E
ENCODING 69
SWIDTH 560 0
DWIDTH 8 0
BBX 9 11 0 0
BITMAP
3F80
1080
1080
2000
2000
3E00
2000
4000
4200
4200
FE00
ENDCHAR

STARTCHAR F
ENCODING 70
SWIDTH 560 0
DWIDTH 8 0
BBX 9 11 0 0
BITMAP
3F80
1080
1080
2000
2000
3E00
2000
4000
4000
4000
E000
ENDCHAR

STARTCHAR G
ENCODING 71
SWIDTH 780 0
DWIDTH 11 0
BBX 10 11 1 0
BITMAP
0F40
30C0
4040
4000
8000
8000
87C0
8080
4080
6180
1E80
ENDCHAR

STARTCHAR H
ENCODING 72
SWIDTH 720 0
DWIDTH 10 0
BBX 11 11 0 0
BITMAP
38E0
1040
1040
2080
2080
3F80
2080
4100
4100
4100
E380
ENDCHAR

STARTCHAR I
ENCODING 73
SWIDTH 300 0
DWIDTH 4 0
BBX 5 11 0 0
BITMAP
38
10
10
20
20
20
20
40
40
40
E0
ENDCHAR

STARTCHAR J
ENCODING 74
SWIDTH 520 0
DWIDTH 7 0
BBX 8 11 0 0
BITMAP
07
02
02
04
04
04
04
08
88
88
70
ENDCHAR

STARTCHAR K
ENCODING 75
SWIDTH 700 0
DWIDTH 10 0
BBX 10 11 0 0
BITMAP
39C0
1100
1200
2400
2800
3000
2800
4400
4200
4100
E380
ENDCHAR

STARTCHAR L
ENCODING 76
SWIDTH 520 0
DWIDTH 7 0
BBX 6 11 0 0
BITMAP
38
10
10
20
20
20
20
40
40
44
FC
ENDCHAR

STARTCHAR M
ENCODING 77
SWIDTH 980 0
DWIDTH 14 0
BBX 15 11 0 0
BITMAP
380E
180C
1814
2828
2828
2448
2488
4490
4510
4210
E238
ENDCHAR

STARTCHAR N
ENCODING 78
SWIDTH 800 0
DWIDTH 12 0
BBX 13 11 0 0
BITMAP
3038
1810
1810
2420
2420
2220
2220
4240
4140
40C0
E0C0
ENDCHAR

STARTCHAR O
ENCODING 79
SWIDTH 800 0
DWIDTH 12 0
BBX 11 11 1 0
BITMAP
0F00
30C0
4040
4020
8020
8020
8020
8040
4040
6180
1E00
ENDCHAR

STARTCHAR P
ENCODING 80
SWIDTH 580 0
DWIDTH 9 0
BBX 9 11 0 0
BITMAP
3F00
1080
1080
2080
2100
3E00
2000
4000
4000
4000
E000
ENDCHAR

STARTCHAR Q
ENCODING 81
SWIDTH 860 0
DWIDTH 12 0
BBX 11 11 1 0
BITMAP
0F00
30C0
4040
4020
8020
8020
BC20
C240
41C0
61A0
1E60
ENDCHAR

STARTCHAR R
ENCODING 82
SWIDTH 640 0
DWIDTH 9 0
BBX 9 11 0 0
BITMAP
3F00
1080
1080
2080
2080
2100
2E00
4400
4200
4100
E180
ENDCHAR

STARTCHAR S
ENCODING 83
SWIDTH 500 0
DWIDTH 8 0
BBX 9 11 0 0
BITMAP
0E80
1180
2080
2000
1800
0600
0100
0100
8100
C200
BC00
ENDCHAR

STARTCHAR T
ENCODING 84
SWIDTH 540 0
DWIDTH 8 0
BBX 7 11 2 0
BITMAP
FE
92
10
20
20
20
20
40
40
40
E0
ENDCHAR

STARTCHAR U
ENCODING 85
SWIDTH 700 0
DWIDTH 10 0
BBX 10 11 1 0
BITMAP
71C0
2080
2080
4100
4100
4100
8100
8200
8200
C400
7800
ENDCHAR

STARTCHAR V
ENCODING 86
SWIDTH 780 0
DWIDTH 11 0
BBX 10 11 2 0
BITMAP
E1C0
4080
4080
4100
2100
2200
2200
2400
1400
1800
1800
ENDCHAR

STARTCHAR W
ENCODING 87
SWIDTH 1040 0
DWIDTH 15 0
BBX 15 11 1 0
BITMAP
E10E
4104
4304
4308
4508
2510
2510
28A0
28A0
30C0
30C0
ENDCHAR

STARTCHAR X
ENCODING 88
SWIDTH 740 0
DWIDTH 10 0
BBX 11 11 0 0
BITMAP
1CE0
0840
0880
0500
0600
0600
0A00
1100
2100
4080
E1C0
ENDCHAR

STARTCHAR Y
ENCODING 89
SWIDTH 680 0
DWIDTH 9 0
BBX 9 11 1 0
BITMAP
E380
4100
4200
4400
4400
2800
3000
2000
2000
2000
7000
ENDCHAR

STARTCHAR Z
ENCODING 90
SWIDTH 520 0
DWIDTH 8 0
BBX 9 11 0 0
BITMAP
3F80
2080
0100
0200
0400
0800
1000
2000
4000
8200
FE00
ENDCHAR

STARTCHAR bracketleft
ENCODING 91
SWIDTH 300 0
DWIDTH 5 0
BBX 6 13 0 -2
BITMAP
1C
10
10
20
20
20
40
40
40
40
80
80
E0
ENDCHAR

STARTCHAR backslash
ENCODING 92
SWIDTH 580 0
DWIDTH 8 0
BBX 4 11 3 0
BITMAP
80
80
40
40
40
20
20
20
10
10
10
ENDCHAR

STARTCHAR bracketright
ENCODING 93
SWIDTH 300 0
DWIDTH 5 0
BBX 6 13 -1 -2
BITMAP
1C
04
04
08
08
08
10
10
10
10
20
20
E0
ENDCHAR

STARTCHAR asciicircum
ENCODING 94
SWIDTH 660 0
DWIDTH 9 0
BBX 7 8 1 3
BITMAP
08
08
14
24
24
42
82
82
ENDCHAR

STARTCHAR underscore
ENCODING 95
SWIDTH 500 0
DWIDTH 7 0
BBX 7 1 -1 -2
BITMAP
FE
ENDCHAR

STARTCHAR quoteleft
ENCODING 96
SWIDTH 200 0
DWIDTH 3 0
BBX 2 2 2 9
BITMAP
80
40
ENDCHAR

STARTCHAR a
ENCODING 97
SWIDTH 660 0
DWIDTH 9 0
BBX 9 8 0 0
BITMAP
1D80
6300
4100
8100
8200
8200
4600
3B00
ENDCHAR

STARTCHAR b
ENCODING 98
SWIDTH 660 0
DWIDTH 9 0
BBX 9 11 0 0
BITMAP
3000
1000
1000
2E00
3100
2080
2080
4080
4100
6300
DC00
ENDCHAR

STARTCHAR c
ENCODING 99
SWIDTH 560 0
DWIDTH 8 0
BBX 8 8 0 0
BITMAP
1D
63
41
80
80
80
42
3C
ENDCHAR

STARTCHAR d
ENCODING 100
SWIDTH 660 0
DWIDTH 9 0
BBX 9 11 0 0
BITMAP
0180
0080
0080
1D00
6300
4100
8100
8200
8200
4600
3B00
ENDCHAR

STARTCHAR e
ENCODING 101
SWIDTH 580 0
DWIDTH 9 0
BBX 9 8 0 0
BITMAP
1E00
2100
4080
7F80
8000
8100
4200
3C00
ENDCHAR

STARTCHAR f
ENCODING 102
SWIDTH 300 0
DWIDTH 4 0
BBX 6 11 0 0
BITMAP
0C
10
10
78
20
20
20
40
40
40
E0
ENDCHAR

STARTCHAR g
ENCODING 103
SWIDTH 660 0
DWIDTH 9 0
BBX 10 11 -1 -3
BITMAP
0EC0
3180
2080
4080
4100
4100
2300
1D00
0200
8400
7800
ENDCHAR

STARTCHAR h
ENCODING 104
SWIDTH 640 0
DWIDTH 9 0
BBX 9 11 0 0
BITMAP
3000
1000
1000
2700
2980
3080
2080
4100
4100
4100
E380
ENDCHAR

STARTCHAR i
ENCODING 105
SWIDTH 260 0
DWIDTH 4 0
BBX 4 11 0 0
BITMAP
10
10
00
60
20
20
20
40
40
40
E0
ENDCHAR

STARTCHAR j
ENCODING 106
SWIDTH 240 0
DWIDTH 3 0
BBX 6 14 -2 -3
BITMAP
04
04
00
18
08
08
08
10
10
10
10
20
20
C0
ENDCHAR

STARTCHAR k
ENCODING 107
SWIDTH 580 0
DWIDTH 8 0
BBX 8 11 0 0
BITMAP
30
10
10
27
24
28
30
70
48
44
E7
ENDCHAR

STARTCHAR l
ENCODING 108
SWIDTH 280 0
DWIDTH 4 0
BBX 4 11 0 0
BITMAP
30
10
10
20
20
20
20
40
40
40
E0
ENDCHAR

STARTCHAR m
ENCODING 109
SWIDTH 980 0
DWIDTH 14 0
BBX 13 8 0 0
BITMAP
6E70
3188
2108
2108
4210
4210
4210
E738
ENDCHAR

STARTCHAR n
ENCODING 110
SWIDTH 660 0
DWIDTH 10 0
BBX 9 8 0 0
BITMAP
6700
2980
3080
2080
4100
4100
4100
E380
ENDCHAR

STARTCHAR o
ENCODING 111
SWIDTH 580 0
DWIDTH 9 0
BBX 9 8 0 0
BITMAP
1E00
6100
4080
8080
8080
8100
4300
3C00
ENDCHAR

STARTCHAR p
ENCODING 112
SWIDTH 660 0
DWIDTH 9 0
BBX 10 11 -1 -3
BITMAP
3700
1880
1040
1040
2040
2080
3180
2E00
4000
4000
E000
ENDCHAR

STARTCHAR q
ENCODING 113
SWIDTH 660 0
DWIDTH 9 0
BBX 9 11 0 -3
BITMAP
1D80
6300
4100
8100
8200
8200
4600
3A00
0400
0400
0E00
ENDCHAR

STARTCHAR r
ENCODING 114
SWIDTH 360 0
DWIDTH 5 0
BBX 6 8 0 0
BITMAP
6C
30
20
20
40
40
40
E0
ENDCHAR

STARTCHAR s
ENCODING 115
SWIDTH 420 0
DWIDTH 7 0
BBX 7 8 0 0
BITMAP
3A
46
42
30
08
84
C4
B8
ENDCHAR

STARTCHAR t
ENCODING 116
SWIDTH 320 0
DWIDTH 5 0
BBX 5 11 1 0
BITMAP
10
10
10
F8
20
20
20
40
40
40
60
ENDCHAR

STARTCHAR u
ENCODING 117
SWIDTH 640 0
DWIDTH 9 0
BBX 7 8 1 0
BITMAP
C6
42
42
82
84
84
CC
76
ENDCHAR

STARTCHAR v
ENCODING 118
SWIDTH 640 0
DWIDTH 8 0
BBX 9 8 0 0
BITMAP
E380
4100
4200
2200
2400
2400
1800
1800
ENDCHAR

STARTCHAR w
ENCODING 119
SWIDTH 900 0
DWIDTH 10 0
BBX 11 8 0 0
BITMAP
E0E0
4440
4440
4A80
2A80
2A80
3300
3300
ENDCHAR

STARTCHAR x
ENCODING 120
SWIDTH 600 0
DWIDTH 9 0
BBX 9 8 0 0
BITMAP
7380
2100
1200
0C00
1800
2400
4200
E700
ENDCHAR

STARTCHAR y
ENCODING 121
SWIDTH 640 0
DWIDTH 8 0
BBX 9 11 0 -3
BITMAP
E380
4100
4200
2200
2400
2800
1800
1000
1000
2000
7000
ENDCHAR

STARTCHAR z
ENCODING 122
SWIDTH 420 0
DWIDTH 7 0
BBX 7 8 0 0
BITMAP
7E
44
08
10
20
40
84
FC
ENDCHAR

STARTCHAR braceleft
ENCODING 123
SWIDTH 300 0
DWIDTH 4 0
BBX 5 13 0 -2
BITMAP
08
10
20
20
20
40
20
40
40
80
80
80
40
ENDCHAR

STARTCHAR bar
ENCODING 124
SWIDTH 660 0
DWIDTH 9 0
BBX 3 11 4 0
BITMAP
20
20
20
40
40
40
40
80
80
80
80
ENDCHAR

STARTCHAR braceright
ENCODING 125
SWIDTH 300 0
DWIDTH 4 0
BBX 5 13 -1 -2
BITMAP
10
08
08
10
10
08
10
10
20
20
20
40
80
ENDCHAR

STARTCHAR asciitilde
ENCODING 126
SWIDTH 660 0
DWIDTH 9 0
BBX 8 2 1 4
BITMAP
71
8E
ENDCHAR

STARTCHAR space
ENCODING 160
SWIDTH 300 0
DWIDTH 3 0
BBX 1 1 0 0
BITMAP
00
ENDCHAR

STARTCHAR exclamdown
ENCODING 161
SWIDTH 140 0
DWIDTH 4 0
BBX 3 11 0 -3
BITMAP
20
20
00
20
20
40
40
40
80
80
80
ENDCHAR

STARTCHAR cent
ENCODING 162
SWIDTH 580 0
DWIDTH 8 0
BBX 6 8 1 2
BITMAP
08
3C
54
90
A0
AC
70
20
ENDCHAR

STARTCHAR sterling
ENCODING 163
SWIDTH 640 0
DWIDTH 9 0
BBX 9 11 0 0
BITMAP
0E80
1180
2080
2000
1000
7E00
0800
1000
1100
2100
FE00
ENDCHAR

STARTCHAR currency
ENCODING 164
SWIDTH 560 0
DWIDTH 8 0
BBX 8 8 0 2
BITMAP
21
1E
22
42
42
44
78
84
ENDCHAR

STARTCHAR yen
ENCODING 165
SWIDTH 740 0
DWIDTH 10 0
BBX 10 11 0 0
BITMAP
71C0
2080
2100
1200
1400
7F00
0800
FE00
1000
1000
3800
ENDCHAR

STARTCHAR brokenbar
ENCODING 166
SWIDTH 660 0
DWIDTH 9 0
BBX 3 11 4 0
BITMAP
20
20
20
20
00
00
00
80
80
80
80
ENDCHAR

STARTCHAR section
ENCODING 167
SWIDTH 440 0
DWIDTH 8 0
BBX 8 13 0 -2
BITMAP
0E
11
21
20
1C
22
42
44
38
04
84
88
70
ENDCHAR

STARTCHAR dieresis
ENCODING 168
SWIDTH 340 0
DWIDTH 5 0
BBX 3 2 3 9
BITMAP
A0
A0
ENDCHAR

STARTCHAR copyright
ENCODING 169
SWIDTH 820 0
DWIDTH 12 0
BBX 12 11 0 0
BITMAP
0F80
3060
4720
4890
9090
9010
9010
9120
4E20
60C0
1F00
ENDCHAR

STARTCHAR ordfeminine
ENCODING 170
SWIDTH 420 0
DWIDTH 7 0
BBX 7 7 1 4
BITMAP
36
4C
88
98
6C
00
FC
ENDCHAR

STARTCHAR guillemotleft
ENCODING 171
SWIDTH 320 0
DWIDTH 6 0
BBX 4 3 1 3
BITMAP
50
A0
50
ENDCHAR

STARTCHAR logicalnot
ENCODING 172
SWIDTH 660 0
DWIDTH 9 0
BBX 8 4 1 3
BITMAP
FF
01
02
02
ENDCHAR

STARTCHAR hyphen
ENCODING 173
SWIDTH 300 0
DWIDTH 6 0
BBX 4 1 1 4
BITMAP
F0
ENDCHAR

STARTCHAR registered
ENCODING 174
SWIDTH 820 0
DWIDTH 12 0
BBX 12 11 0 0
BITMAP
0F80
3060
4720
4890
8890
8F10
9210
9120
5120
60C0
1F00
ENDCHAR

STARTCHAR macron
ENCODING 175
SWIDTH 460 0
DWIDTH 7 0
BBX 5 1 3 10
BITMAP
F8
ENDCHAR

STARTCHAR degree
ENCODING 176
SWIDTH 400 0
DWIDTH 6 0
BBX 4 4 1 7
BITMAP
60
90
90
60
ENDCHAR

STARTCHAR plusminus
ENCODING 177
SWIDTH 660 0
DWIDTH 9 0
BBX 7 7 0 2
BITMAP
08
08
7E
10
10
00
FC
ENDCHAR

STARTCHAR twosuperior
ENCODING 178
SWIDTH 348 0
DWIDTH 5 0
BBX 5 6 0 5
BITMAP
78
88
10
20
40
F8
ENDCHAR

STARTCHAR threesuperior
ENCODING 179
SWIDTH 348 0
DWIDTH 5 0
BBX 5 6 0 5
BITMAP
78
08
30
08
88
70
ENDCHAR

STARTCHAR acute
ENCODING 180
SWIDTH 420 0
DWIDTH 5 0
BBX 3 3 3 9
BITMAP
20
40
80
ENDCHAR

STARTCHAR mu
ENCODING 181
SWIDTH 640 0
DWIDTH 9 0
BBX 8 11 0 -3
BITMAP
63
21
21
41
42
42
66
BB
80
80
80
ENDCHAR

STARTCHAR paragraph
ENCODING 182
SWIDTH 500 0
DWIDTH 8 0
BBX 8 13 1 -2
BITMAP
3F
7A
FA
FA
74
14
14
14
14
28
28
28
28
ENDCHAR

STARTCHAR periodcentered
ENCODING 183
SWIDTH 300 0
DWIDTH 4 0
BBX 1 2 2 4
BITMAP
80
80
ENDCHAR

STARTCHAR cedilla
ENCODING 184
SWIDTH 320 0
DWIDTH 5 0
BBX 3 4 1 -3
BITMAP
40
C0
20
C0
ENDCHAR

STARTCHAR onesuperior
ENCODING 185
SWIDTH 348 0
DWIDTH 5 0
BBX 3 6 1 5
BITMAP
60
20
20
40
40
E0
ENDCHAR

STARTCHAR ordmasculine
ENCODING 186
SWIDTH 340 0
DWIDTH 6 0
BBX 6 7 1 4
BITMAP
38
44
84
88
70
00
F8
ENDCHAR

STARTCHAR guillemotright
ENCODING 187
SWIDTH 320 0
DWIDTH 6 0
BBX 4 3 1 3
BITMAP
A0
50
A0
ENDCHAR

STARTCHAR onequarter
ENCODING 188
SWIDTH 870 0
DWIDTH 12 0
BBX 11 11 1 0
BITMAP
6100
2200
2200
4400
4400
E8C0
0940
1240
1480
27E0
2080
ENDCHAR

STARTCHAR onehalf
ENCODING 189
SWIDTH 870 0
DWIDTH 12 0
BBX 11 11 1 0
BITMAP
6100
2200
2200
4400
4400
E9E0
0A20
1040
1080
2100
23E0
ENDCHAR

STARTCHAR threequarters
ENCODING 190
SWIDTH 870 0
DWIDTH 12 0
BBX 12 11 0 0
BITMAP
7880
0900
3100
0A00
8A00
7460
04A0
0920
0A40
13F0
1040
ENDCHAR

STARTCHAR questiondown
ENCODING 191
SWIDTH 520 0
DWIDTH 7 0
BBX 6 11 0 -3
BITMAP
08
08
00
08
08
30
40
80
84
84
78
ENDCHAR

STARTCHAR Agrave
ENCODING 192
SWIDTH 820 0
DWIDTH 12 0
BBX 11 15 0 0
BITMAP
0400
0200
0100
0000
0700
0100
0280
0480
0480
0880
1F80
1040
2040
4040
E0E0
ENDCHAR

STARTCHAR Aacute
ENCODING 193
SWIDTH 820 0
DWIDTH 12 0
BBX 11 15 0 0
BITMAP
0020
0040
0080
0000
0700
0100
0280
0480
0480
0880
1F80
1040
2040
4040
E0E0
ENDCHAR

STARTCHAR Acircumflex
ENCODING 194
SWIDTH 820 0
DWIDTH 12 0
BBX 11 15 0 0
BITMAP
0100
0280
0440
0000
0700
0100
0280
0480
0480
0880
1F80
1040
2040
4040
E0E0
ENDCHAR

STARTCHAR Atilde
ENCODING 195
SWIDTH 820 0
DWIDTH 12 0
BBX 11 14 0 0
BITMAP
0320
04C0
0000
0700
0100
0280
0480
0480
0880
1F80
1040
2040
4040
E0E0
ENDCHAR

STARTCHAR Adieresis
ENCODING 196
SWIDTH 820 0
DWIDTH 12 0
BBX 11 14 0 0
BITMAP
0280
0280
0000
0700
0100
0280
0480
0480
0880
1F80
1040
2040
4040
E0E0
ENDCHAR

STARTCHAR Aring
ENCODING 197
SWIDTH 820 0
DWIDTH 12 0
BBX 11 15 0 0
BITMAP
0300
0480
0300
0000
0700
0100
0280
0480
0480
0880
1F80
1040
2040
4040
E0E0
ENDCHAR

STARTCHAR AE
ENCODING 198
SWIDTH 1000 0
DWIDTH 14 0
BBX 15 11 0 0
BITMAP
03FE
00C2
0142
0280
0480
08F8
1F80
1100
2108
4108
E3F8
ENDCHAR

STARTCHAR Ccedilla
ENCODING 199
SWIDTH 740 0
DWIDTH 11 0
BBX 10 14 1 -3
BITMAP
0F40
30C0
4040
4000
8000
8000
8000
8000
4080
6100
1E00
3000
0800
3000
ENDCHAR

STARTCHAR Egrave
ENCODING 200
SWIDTH 560 0
DWIDTH 8 0
BBX 9 15 0 0
BITMAP
0800
0400
0200
0000
3F80
1080
1080
2000
2000
3E00
2000
4000
4200
4200
FE00
ENDCHAR

STARTCHAR Eacute
ENCODING 201
SWIDTH 560 0
DWIDTH 8 0
BBX 9 15 0 0
BITMAP
0100
0200
0400
0000
3F80
1080
1080
2000
2000
3E00
2000
4000
4200
4200
FE00
ENDCHAR

STARTCHAR Ecircumflex
ENCODING 202
SWIDTH 560 0
DWIDTH 8 0
BBX 9 15 0 0
BITMAP
0400
0A00
1100
0000
3F80
1080
1080
2000
2000
3E00
2000
4000
4200
4200
FE00
ENDCHAR

STARTCHAR Edieresis
ENCODING 203
SWIDTH 560 0
DWIDTH 8 0
BBX 9 14 0 0
BITMAP
0500
0500
0000
3F80
1080
1080
2000
2000
3E00
2000
4000
4200
4200
FE00
ENDCHAR

STARTCHAR Igrave
ENCODING 204
SWIDTH 300 0
DWIDTH 4 0
BBX 5 15 0 0
BITMAP
20
10
08
00
38
10
10
20
20
20
20
40
40
40
E0
ENDCHAR

STARTCHAR Iacute
ENCODING 205
SWIDTH 300 0
DWIDTH 4 0
BBX 6 15 0 0
BITMAP
04
08
10
00
38
10
10
20
20
20
20
40
40
40
E0
ENDCHAR

STARTCHAR Icircumflex
ENCODING 206
SWIDTH 300 0
DWIDTH 4 0
BBX 7 15 0 0
BITMAP
08
14
22
00
38
10
10
20
20
20
20
40
40
40
E0
ENDCHAR

STARTCHAR Idieresis
ENCODING 207
SWIDTH 300 0
DWIDTH 4 0
BBX 6 14 0 0
BITMAP
14
14
00
38
10
10
20
20
20
20
40
40
40
E0
ENDCHAR

STARTCHAR Eth
ENCODING 208
SWIDTH 720 0
DWIDTH 11 0
BBX 11 11 0 0
BITMAP
3F80
1040
1020
1020
2020
FC20
2020
4040
4040
4180
FE00
ENDCHAR

STARTCHAR Ntilde
ENCODING 209
SWIDTH 800 0
DWIDTH 12 0
BBX 13 14 0 0
BITMAP
0320
04C0
0000
3038
1810
1810
2420
2420
2220
2220
4240
4140
40C0
E0C0
ENDCHAR

STARTCHAR Ograve
ENCODING 210
SWIDTH 800 0
DWIDTH 12 0
BBX 11 15 1 0
BITMAP
0800
0400
0200
0000
0F00
30C0
4040
4020
8020
8020
8020
8040
4040
6180
1E00
ENDCHAR

STARTCHAR Oacute
ENCODING 211
SWIDTH 800 0
DWIDTH 12 0
BBX 11 15 1 0
BITMAP
0080
0100
0200
0000
0F00
30C0
4040
4020
8020
8020
8020
8040
4040
6180
1E00
ENDCHAR

STARTCHAR Ocircumflex
ENCODING 212
SWIDTH 800 0
DWIDTH 12 0
BBX 11 15 1 0
BITMAP
0200
0500
0880
0000
0F00
30C0
4040
4020
8020
8020
8020
8040
4040
6180
1E00
ENDCHAR

STARTCHAR Otilde
ENCODING 213
SWIDTH 800 0
DWIDTH 12 0
BBX 11 14 1 0
BITMAP
0640
0980
0000
0F00
30C0
4040
4020
8020
8020
8020
8040
4040
6180
1E00
ENDCHAR

STARTCHAR Odieresis
ENCODING 214
SWIDTH 800 0
DWIDTH 12 0
BBX 11 14 1 0
BITMAP
0500
0500
0000
0F00
30C0
4040
4020
8020
8020
8020
8040
4040
6180
1E00
ENDCHAR

STARTCHAR multiply
ENCODING 215
SWIDTH 660 0
DWIDTH 9 0
BBX 8 7 0 2
BITMAP
41
22
14
18
28
44
82
ENDCHAR

STARTCHAR Oslash
ENCODING 216
SWIDTH 800 0
DWIDTH 12 0
BBX 11 11 1 0
BITMAP
0F20
30C0
40C0
4120
8220
8420
8820
9040
6040
6180
9E00
ENDCHAR

STARTCHAR Ugrave
ENCODING 217
SWIDTH 700 0
DWIDTH 10 0
BBX 10 15 1 0
BITMAP
0800
0400
0200
0000
71C0
2080
2080
4100
4100
4100
8100
8200
8200
C400
7800
ENDCHAR

STARTCHAR Uacute
ENCODING 218
SWIDTH 700 0
DWIDTH 10 0
BBX 10 15 1 0
BITMAP
0080
0100
0200
0000
71C0
2080
2080
4100
4100
4100
8100
8200
8200
C400
7800
ENDCHAR

STARTCHAR Ucircumflex
ENCODING 219
SWIDTH 700 0
DWIDTH 10 0
BBX 10 15 1 0
BITMAP
0200
0500
0880
0000
71C0
2080
2080
4100
4100
4100
8100
8200
8200
C400
7800
ENDCHAR

STARTCHAR Udieresis
ENCODING 220
SWIDTH 700 0
DWIDTH 10 0
BBX 10 14 1 0
BITMAP
0900
0900
0000
71C0
2080
2080
4100
4100
4100
8100
8200
8200
C400
7800
ENDCHAR

STARTCHAR Yacute
ENCODING 221
SWIDTH 680 0
DWIDTH 9 0
BBX 9 15 1 0
BITMAP
0100
0200
0400
0000
E380
4100
4200
4400
4400
2800
3000
2000
2000
2000
7000
ENDCHAR

STARTCHAR Thorn
ENCODING 222
SWIDTH 580 0
DWIDTH 9 0
BBX 9 11 0 0
BITMAP
3800
1000
1F00
2080
2080
2080
2100
7E00
4000
4000
E000
ENDCHAR

STARTCHAR germandbls
ENCODING 223
SWIDTH 580 0
DWIDTH 9 0
BBX 8 11 0 0
BITMAP
0E
11
11
21
22
24
22
41
41
42
DC
ENDCHAR

STARTCHAR agrave
ENCODING 224
SWIDTH 660 0
DWIDTH 9 0
BBX 9 12 0 0
BITMAP
1000
0800
0400
0000
1D80
6300
4100
8100
8200
8200
4600
3B00
ENDCHAR

STARTCHAR aacute
ENCODING 225
SWIDTH 660 0
DWIDTH 9 0
BBX 9 12 0 0
BITMAP
0200
0400
0800
0000
1D80
6300
4100
8100
8200
8200
4600
3B00
ENDCHAR

STARTCHAR acircumflex
ENCODING 226
SWIDTH 660 0
DWIDTH 9 0
BBX 9 12 0 0
BITMAP
0400
0A00
1100
0000
1D80
6300
4100
8100
8200
8200
4600
3B00
ENDCHAR

STARTCHAR atilde
ENCODING 227
SWIDTH 660 0
DWIDTH 9 0
BBX 9 11 0 0
BITMAP
0C80
1300
0000
1D80
6300
4100
8100
8200
8200
4600
3B00
ENDCHAR

STARTCHAR adieresis
ENCODING 228
SWIDTH 660 0
DWIDTH 9 0
BBX 9 11 0 0
BITMAP
0A00
0A00
0000
1D80
6300
4100
8100
8200
8200
4600
3B00
ENDCHAR

STARTCHAR aring
ENCODING 229
SWIDTH 660 0
DWIDTH 9 0
BBX 9 12 0 0
BITMAP
0C00
1200
0C00
0000
1D80
6300
4100
8100
8200
8200
4600
3B00
ENDCHAR

STARTCHAR ae
ENCODING 230
SWIDTH 1060 0
DWIDTH 15 0
BBX 15 8 0 0
BITMAP
1D78
6384
4102
81FE
8200
8204
4708
3AF0
ENDCHAR

STARTCHAR ccedilla
ENCODING 231
SWIDTH 560 0
DWIDTH 8 0
BBX 8 11 0 -3
BITMAP
1D
63
41
80
80
80
42
3C
30
08
30
ENDCHAR

STARTCHAR egrave
ENCODING 232
SWIDTH 580 0
DWIDTH 9 0
BBX 9 12 0 0
BITMAP
1000
0800
0400
0000
1E00
2100
4080
7F80
8000
8100
4200
3C00
ENDCHAR

STARTCHAR eacute
ENCODING 233
SWIDTH 580 0
DWIDTH 9 0
BBX 9 12 0 0
BITMAP
0200
0400
0800
0000
1E00
2100
4080
7F80
8000
8100
4200
3C00
ENDCHAR

STARTCHAR ecircumflex
ENCODING 234
SWIDTH 580 0
DWIDTH 9 0
BBX 9 12 0 0
BITMAP
0400
0A00
1100
0000
1E00
2100
4080
7F80
8000
8100
4200
3C00
ENDCHAR

STARTCHAR edieresis
ENCODING 235
SWIDTH 580 0
DWIDTH 9 0
BBX 9 11 0 0
BITMAP
0A00
0A00
0000
1E00
2100
4080
7F80
8000
8100
4200
3C00
ENDCHAR

STARTCHAR igrave
ENCODING 236
SWIDTH 260 0
DWIDTH 4 0
BBX 3 12 0 0
BITMAP
80
40
20
00
60
20
20
20
40
40
40
E0
ENDCHAR

STARTCHAR iacute
ENCODING 237
SWIDTH 260 0
DWIDTH 4 0
BBX 5 12 0 0
BITMAP
08
10
20
00
60
20
20
20
40
40
40
E0
ENDCHAR

STARTCHAR icircumflex
ENCODING 238
SWIDTH 260 0
DWIDTH 4 0
BBX 5 12 0 0
BITMAP
20
50
88
00
60
20
20
20
40
40
40
E0
ENDCHAR

STARTCHAR idieresis
ENCODING 239
SWIDTH 260 0
DWIDTH 4 0
BBX 4 11 0 0
BITMAP
50
50
00
60
20
20
20
40
40
40
E0
ENDCHAR

STARTCHAR eth
ENCODING 240
SWIDTH 580 0
DWIDTH 9 0
BBX 9 11 0 0
BITMAP
3300
1C00
6200
1F00
6100
4080
8080
8080
8100
4300
3C00
ENDCHAR

STARTCHAR ntilde
ENCODING 241
SWIDTH 660 0
DWIDTH 10 0
BBX 9 11 0 0
BITMAP
0C80
1300
0000
6700
2980
3080
2080
4100
4100
4100
E380
ENDCHAR

STARTCHAR ograve
ENCODING 242
SWIDTH 580 0
DWIDTH 9 0
BBX 9 12 0 0
BITMAP
1000
0800
0400
0000
1E00
6100
4080
8080
8080
8100
4300
3C00
ENDCHAR

STARTCHAR oacute
ENCODING 243
SWIDTH 580 0
DWIDTH 9 0
BBX 9 12 0 0
BITMAP
0200
0400
0800
0000
1E00
6100
4080
8080
8080
8100
4300
3C00
ENDCHAR

STARTCHAR ocircumflex
ENCODING 244
SWIDTH 580 0
DWIDTH 9 0
BBX 9 12 0 0
BITMAP
0400
0A00
1100
0000
1E00
6100
4080
8080
8080
8100
4300
3C00
ENDCHAR

STARTCHAR otilde
ENCODING 245
SWIDTH 580 0
DWIDTH 9 0
BBX 9 11 0 0
BITMAP
1900
2600
0000
1E00
6100
4080
8080
8080
8100
4300
3C00
ENDCHAR

STARTCHAR odieresis
ENCODING 246
SWIDTH 580 0
DWIDTH 9 0
BBX 9 11 0 0
BITMAP
0A00
0A00
0000
1E00
6100
4080
8080
8080
8100
4300
3C00
ENDCHAR

STARTCHAR divide
ENCODING 247
SWIDTH 660 0
DWIDTH 9 0
BBX 6 7 1 2
BITMAP
10
10
00
FC
00
20
20
ENDCHAR

STARTCHAR oslash
ENCODING 248
SWIDTH 580 0
DWIDTH 9 0
BBX 9 8 0 0
BITMAP
1E80
6100
4280
8480
8880
9100
6300
BC00
ENDCHAR

STARTCHAR ugrave
ENCODING 249
SWIDTH 640 0
DWIDTH 9 0
BBX 7 12 1 0
BITMAP
20
10
08
00
C6
42
42
82
84
84
CC
76
ENDCHAR

STARTCHAR uacute
ENCODING 250
SWIDTH 640 0
DWIDTH 9 0
BBX 7 12 1 0
BITMAP
04
08
10
00
C6
42
42
82
84
84
CC
76
ENDCHAR

STARTCHAR ucircumflex
ENCODING 251
SWIDTH 640 0
DWIDTH 9 0
BBX 7 12 1 0
BITMAP
08
14
22
00
C6
42
42
82
84
84
CC
76
ENDCHAR

STARTCHAR udieresis
ENCODING 252
SWIDTH 640 0
DWIDTH 9 0
BBX 7 11 1 0
BITMAP
28
28
00
C6
42
42
82
84
84
CC
76
ENDCHAR

STARTCHAR yacute
ENCODING 253
SWIDTH 640 0
DWIDTH 8 0
BBX 9 15 0 -3
BITMAP
0200
0400
0800
0000
E380
4100
4200
2200
2400
2800
1800
1000
1000
2000
7000
ENDCHAR

STARTCHAR thorn
ENCODING 254
SWIDTH 660 0
DWIDTH 9 0
BBX 10 14 -1 -3
BITMAP
1800
0800
0800
1700
1880
1040
1040
2040
2080
3180
2E00
4000
4000
E000
ENDCHAR

STARTCHAR ydieresis
ENCODING 255
SWIDTH 640 0
DWIDTH 8 0
BBX 9 14 0 -3
BITMAP
1400
1400
0000
E380
4100
4200
2200
2400
2800
1800
1000
1000
2000
7000
ENDCHAR
ENDFONT
